<?xml version="1.0" standalone="no"?>
<!DOCTYPE svg PUBLIC "-//W3C//DTD SVG 20010904//EN"
 "http://www.w3.org/TR/2001/REC-SVG-20010904/DTD/svg10.dtd">
<svg version="1.0" xmlns="http://www.w3.org/2000/svg"
 width="306.000000pt" height="306.000000pt" viewBox="0 0 306.000000 306.000000"
 preserveAspectRatio="xMidYMid meet">

<g transform="translate(0.000000,306.000000) scale(0.100000,-0.100000)"
fill="#000000" stroke="none">
<path d="M720 2255 l0 -205 290 0 290 0 0 -720 0 -720 230 0 230 0 0 663 0
663 -407 262 -406 262 -114 0 -113 0 0 -205z"/>
<path d="M1323 2454 c3 -4 145 -96 314 -205 l308 -199 203 0 202 0 0 205 0
205 -517 0 c-284 0 -514 -3 -510 -6z"/>
</g>
</svg>
